<?xml version="1.0" encoding="UTF-8" standalone="no"?>

<svg
   version="1.1"
   id="svg4599"
   width="666.66669"
   height="666.66669"
   viewBox="0 0 666.66669 666.66669"
   xmlns:xlink="http://www.w3.org/1999/xlink"
   xmlns="http://www.w3.org/2000/svg"
   xmlns:svg="http://www.w3.org/2000/svg">
  <path
      style="fill:#ffffff;stroke-width:1.33333;fill-opacity:1" class="svg-danmaku"
      d="m 144.33423,483.28491 c -20.44667,-5.54013 -34.71264,-20.66035 -39.01249,-41.34857 -3.2394,-15.58601 -1.05782,-218.93891 2.44177,-227.60579 5.98359,-14.8186 17.71901,-26.03874 32.70385,-31.2679 10.64326,-3.71411 373.75538,-3.71411 384.39863,0 14.98486,5.22916 26.72027,16.4493 32.70386,31.2679 4.31612,10.68906 4.94866,222.36281 0.70086,234.53544 -5.22916,14.98485 -16.4493,26.72027 -31.2679,32.70385 -9.67425,3.90635 -368.64362,5.5152 -382.66858,1.71507 z m 377.72028,-21.10739 c 7.40843,-3.44981 13.07207,-9.35693 16.78906,-17.51084 3.7617,-8.25198 3.7617,-215.74802 0,-224.00001 -10.171,-22.31197 6.24304,-20.66666 -206.17689,-20.66666 -212.41993,0 -196.00589,-1.64531 -206.17689,20.66666 -3.7617,8.25199 -3.7617,215.74803 0,224.00001 3.71699,8.15391 9.38063,14.06103 16.78906,17.51084 10.61158,4.94139 368.16407,4.94139 378.77566,0 z M 207.50706,382.33335 c -4.09281,-15.27226 -1.94232,-17 21.15961,-17 23.10194,0 25.25243,1.72774 21.15962,17 -1.26169,4.708 -41.05754,4.708 -42.31923,0 z m 79.76568,-0.27274 c -1.8,-1.8 -3.27273,-4.82726 -3.27273,-6.72726 0,-10.26822 -2.37817,-10 88.66667,-10 91.04484,0 88.66667,-0.26822 88.66667,10 0,1.9 -1.47273,4.92726 -3.27273,6.72726 -5.16587,5.16588 -165.62201,5.16588 -170.78788,0 z m -79.76568,-89.0606 c -4.09281,-15.27225 -1.94232,-17 21.15961,-17 22.66585,0 21.96359,-0.31973 21.96359,10 0,10.31973 0.70226,10 -21.96359,10 -19.98246,0 -20.37038,-0.0549 -21.15961,-3 z m 79.76568,-0.27273 c -1.8,-1.8 -3.27273,-4.82727 -3.27273,-6.72727 0,-10.26821 -2.37817,-10 88.66667,-10 91.04484,0 88.66667,-0.26821 88.66667,10 0,1.9 -1.47273,4.92727 -3.27273,6.72727 -5.16587,5.16588 -165.62201,5.16588 -170.78788,0 z"
      id="path5335" />
</svg>
