<svg width="666.667" height="666.667" xmlns="http://www.w3.org/2000/svg"><path style="fill:#fff;stroke-width:1.33333;fill-opacity:1" class="svg-danmaku" d="M144.334 483.285c-20.446-5.54-34.712-20.66-39.012-41.349-3.24-15.586-1.058-218.939 2.442-227.605 5.983-14.819 17.719-26.04 32.703-31.268 10.644-3.714 373.756-3.714 384.399 0 14.985 5.229 26.72 16.449 32.704 31.268 4.316 10.689 4.949 222.362.7 234.535-5.228 14.985-16.449 26.72-31.267 32.704-9.674 3.906-368.644 5.515-382.669 1.715zm377.72-21.107c7.409-3.45 13.073-9.357 16.79-17.511 3.761-8.252 3.761-215.748 0-224C528.673 198.355 545.087 200 332.667 200s-196.006-1.645-206.177 20.667c-3.762 8.252-3.762 215.748 0 224 3.717 8.154 9.38 14.06 16.789 17.51 10.611 4.942 368.164 4.942 378.776 0zm-314.547-79.845c-4.093-15.272-1.942-17 21.16-17s25.252 1.728 21.16 17c-1.262 4.708-41.058 4.708-42.32 0zm79.766-.272c-1.8-1.8-3.273-4.828-3.273-6.728 0-10.268-2.378-10 88.667-10s88.666-.268 88.666 10c0 1.9-1.472 4.928-3.272 6.728-5.166 5.165-165.622 5.165-170.788 0zM207.507 293c-4.093-15.272-1.942-17 21.16-17 22.666 0 21.963-.32 21.963 10s.703 10-21.963 10c-19.983 0-20.37-.055-21.16-3zm79.766-.273c-1.8-1.8-3.273-4.827-3.273-6.727 0-10.268-2.378-10 88.667-10s88.666-.268 88.666 10c0 1.9-1.472 4.927-3.272 6.727-5.166 5.166-165.622 5.166-170.788 0z"/></svg>