<?xml version="1.0" encoding="UTF-8" standalone="no"?>

<svg
   version="1.1"
   id="svg409"
   width="666.66669"
   height="666.66669"
   viewBox="0 0 666.66669 666.66669"
   xmlns:xlink="http://www.w3.org/1999/xlink"
   xmlns="http://www.w3.org/2000/svg"
   xmlns:svg="http://www.w3.org/2000/svg">
  <path
      style="fill:#ffffff;stroke-width:1.33333;fill-opacity:1"
      d="m 144.66667,483.45466 c -15.76051,-3.90524 -27.58753,-13.53475 -34.97021,-28.47259 -7.32244,-14.81595 -8.0327,-227.9769 -0.81043,-243.22154 7.58912,-16.01896 20.9708,-26.8213 37.51294,-30.28226 9.96166,-2.08417 362.57375,-2.08417 372.53542,0 16.54214,3.46096 29.92382,14.2633 37.51294,30.28226 7.22228,15.24464 6.51201,228.40559 -0.81043,243.22154 -7.59855,15.37461 -20.32184,25.37649 -36.70251,28.85211 -10.60435,2.25001 -365.1064,1.89053 -374.26772,-0.37952 z m 374.33605,-20.02364 c 22.36889,-7.98267 21.66397,-3.72778 21.66397,-130.76434 0,-127.03657 0.70492,-122.78167 -21.66397,-130.76434 -7.40702,-2.64331 -365.26506,-2.64331 -372.67209,0 -22.36887,7.98267 -21.66396,3.72777 -21.66396,130.76434 0,127.03656 -0.70491,122.78167 21.66396,130.76434 7.40703,2.6433 365.26507,2.6433 372.67209,0 z M 277.33334,332.66668 c 0,-79.195 0,-79.195 29.66667,-62.0706 90.92575,52.48482 105.09844,60.85514 105.09844,62.0706 0,1.21545 -14.17269,9.58577 -105.09844,62.0706 -29.66667,17.1244 -29.66667,17.1244 -29.66667,-62.0706 z"
      id="path3502" />
</svg>
