<svg width="666.667" height="666.667" xmlns="http://www.w3.org/2000/svg"><path style="fill:#fff;stroke-width:1.33333;fill-opacity:1" d="M144.667 483.455c-15.76-3.906-27.588-13.535-34.97-28.473-7.323-14.816-8.033-227.977-.811-243.221 7.59-16.02 20.97-26.822 37.513-30.283 9.962-2.084 362.574-2.084 372.535 0 16.543 3.461 29.924 14.264 37.513 30.283 7.223 15.244 6.512 228.405-.81 243.221-7.599 15.375-20.322 25.377-36.703 28.852-10.604 2.25-365.106 1.89-374.267-.38zm374.336-20.024c22.369-7.983 21.664-3.728 21.664-130.764 0-127.037.705-122.782-21.664-130.765-7.407-2.643-365.265-2.643-372.672 0-22.37 7.983-21.664 3.728-21.664 130.765 0 127.036-.705 122.781 21.664 130.764 7.407 2.643 365.265 2.643 372.672 0zm-241.67-130.764c0-79.195 0-79.195 29.667-62.07 90.926 52.484 105.098 60.854 105.098 62.07 0 1.215-14.172 9.585-105.098 62.07-29.667 17.125-29.667 17.125-29.667-62.07z"/></svg>