<svg width="666.667" height="666.667" xmlns="http://www.w3.org/2000/svg"><path style="fill:#fcfcfc;stroke-width:1.33333;fill-opacity:1" class="svg-up" d="M143.714 482.844c-16.567-4.321-30.958-17.66-36.649-33.97-3.695-10.59-3.695-221.824 0-232.415 5.972-17.112 21.033-30.532 38.625-34.417 15.115-3.337 369.066-2.498 378.878.898 14.995 5.19 28.503 18.627 33.7 33.52 3.696 10.59 3.696 221.823 0 232.414-5.894 16.891-20.942 30.428-38.186 34.35-14.88 3.384-363.285 3.033-376.368-.38zm378.36-20.676c19.807-9.223 19.265-5.545 19.23-130.323-.042-150.78 29.969-131.819-208.637-131.819s-208.596-18.96-208.638 131.82c-.034 124.777-.577 121.1 19.23 130.322 10.643 4.956 368.173 4.956 378.815 0zm-277.12-56.955c-33.117-4.846-38.257-17.674-38.276-95.546l-.011-43h30.548l.392 51c.493 64.016.83 65.008 22.017 64.995 20.043-.014 20.937-2.747 21.462-65.662l.42-50.333H310.834l-.44 53c-.423 51.142-.542 53.258-3.403 60.376-8.128 20.223-31.377 29.656-62.035 25.17zm113.713-69.724c0-67.178 0-67.178 3.666-68.004 44.176-9.955 89.7 3.016 97.013 27.642 10.893 36.679-9.697 59.087-56.769 61.78C388 357.74 388 357.74 388 380.204s0 22.463-14.667 22.463h-14.666zm61.733-5.356c21.412-10.566 10.892-40.004-14.93-41.774-18.48-1.266-17.47-2.603-17.47 23.121 0 22.783 11.091 29.169 32.4 18.653z"/></svg>