<?xml version="1.0" encoding="UTF-8" standalone="no"?>

<svg
   version="1.1"
   id="svg7638"
   width="666.66669"
   height="666.66669"
   viewBox="0 0 666.66669 666.66669"
   xmlns:xlink="http://www.w3.org/1999/xlink"
   xmlns="http://www.w3.org/2000/svg"
   xmlns:svg="http://www.w3.org/2000/svg">
  <path
      style="fill:#fcfcfc;stroke-width:1.33333;fill-opacity:1" class="svg-up"
      d="m 143.71445,482.84435 c -16.5671,-4.32169 -30.95799,-17.66063 -36.64905,-33.97007 -3.69563,-10.5909 -3.69563,-221.8243 0,-232.41521 5.97125,-17.1124 21.03211,-30.53242 38.62489,-34.41681 15.11486,-3.33728 369.06601,-2.49837 378.87808,0.89799 14.99436,5.19014 28.50294,18.62628 33.6996,33.51882 3.69561,10.59091 3.69561,221.82431 0,232.41521 -5.89402,16.89104 -20.94222,30.4275 -38.18554,34.3494 -14.881,3.38462 -363.2851,3.03347 -376.36798,-0.37933 z m 378.35971,-20.67593 c 19.80713,-9.22327 19.26443,-5.5454 19.22991,-130.3231 -0.0417,-150.7801 29.96862,-131.81926 -208.63739,-131.81926 -238.606007,0 -208.59568,-18.96084 -208.63739,131.81926 -0.0345,124.7777 -0.57721,121.09983 19.2299,130.3231 10.64252,4.95573 368.17245,4.95573 378.81497,0 z M 244.95452,405.21303 c -33.11789,-4.84596 -38.2571,-17.67439 -38.27691,-95.54635 l -0.0109,-43 h 15.274 15.274 l 0.39267,51 c 0.49288,64.01604 0.82915,65.00871 22.01651,64.99501 20.04319,-0.0133 20.93671,-2.74658 21.46221,-65.66168 l 0.42042,-50.33333 h 14.66312 14.66312 l -0.43887,53 c -0.42347,51.14184 -0.5428,53.25861 -3.4036,60.37655 -8.12796,20.2231 -31.37693,29.65593 -62.03573,25.1698 z m 113.71216,-69.72424 c 0,-67.17791 0,-67.17791 3.66667,-68.00418 44.17542,-9.95484 89.70012,3.01665 97.01315,27.64227 10.89248,36.67898 -9.69788,59.08663 -56.76951,61.77987 -14.57698,0.83404 -14.57698,0.83404 -14.57698,23.29698 0,22.46295 0,22.46295 -14.66666,22.46295 h -14.66667 z m 61.73317,-5.35554 c 21.41218,-10.56641 10.89181,-40.00396 -14.92909,-41.77376 -18.48109,-1.26672 -17.47075,-2.6038 -17.47075,23.12063 0,22.78308 11.09119,29.16847 32.39984,18.65313 z"
      id="path7648" />
</svg>
