<svg width="200" height="200" viewBox="0 0 1024 1024" class="icon" xmlns="http://www.w3.org/2000/svg" shape-rendering="geometricPrecision"><path d="M512 65a447 447 0 0 1 0 894 447 447 0 0 1 0-894z" fill="#fff"/><path d="M303.5 432a80 80 0 0 1-12 160 80 80 0 0 1 12-160z" fill="#ff6e6b"/><path d="M512 65a447 447 0 0 1 0 894v-30a417 417 0 0 0 0-834 417 417 0 0 0 0 834v30a447 447 0 0 1 0-894z" fill="#fd0d00"/><path d="M512 95a417 417 0 0 1 417 417 208.5 208.5 0 0 1-208.5 208.5V592a80 80 0 0 0 0-160 80 80 0 0 0 0 160v128.5A208.5 208.5 0 0 1 512 512a208.5 208.5 0 0 0-208.5-208.5A208.5 208.5 0 0 0 95 512 417 417 0 0 1 512 95" fill="#fd0d00"/></svg>